<svg width="12" height="12" cursor="pointer" fill="none" xmlns="http://www.w3.org/2000/svg" display="block" class="sc-jSgupP fBYjIE"><path d="M12 6A6 6 0 110 6a6 6 0 0112 0z" fill="#4CACE2"/><path d="M5.74 3.368a.984.984 0 00.71.234.984.984 0 001.05-.9.984.984 0 00-1.05-.9.984.984 0 00-1.05.9.984.984 0 00.34.666zM6.04 8.784l.836-3.153A.901.901 0 006 4.502h-.897a.3.3 0 00-.3.3V4.9a.3.3 0 00.189.279.627.627 0 01.373.742l-.836 3.153a.901.901 0 00.877 1.13h.896a.3.3 0 00.3-.3v-.098a.3.3 0 00-.188-.278.627.627 0 01-.373-.743z" fill="#fff"/></svg>