<svg width="32" height="32" viewBox="0 0 33 33" fill="none" xmlns="http://www.w3.org/2000/svg" display="block" class="sc-jSgupP gYRYZs"><path d="M16.775 32.837c8.837 0 16-7.164 16-16 0-8.837-7.163-16-16-16-8.836 0-16 7.163-16 16 0 8.836 7.164 16 16 16z" fill="#627EEA"/><path d="M16.5 4.837v8.87l7.497 3.35L16.5 4.837z" fill="#fff" opacity=".602"/><path d="M16.498 4.837L9 17.057l7.498-3.35v-8.87z" fill="#fff"/><path d="M16.5 22.805v6.027l7.502-10.38-7.502 4.353z" fill="#fff" opacity=".602"/><path d="M16.498 28.832v-6.028L9 18.454l7.498 10.378z" fill="#fff"/><path d="M16.5 21.41l7.497-4.353-7.497-3.348v7.701z" fill="#fff" opacity=".2"/><path d="M9 17.057l7.498 4.353v-7.701L9 17.057z" fill="#fff" opacity=".602"/></svg>